:SAMPLES-PER-SECOND 30
:FRAME-RANGE 1-2009
:FULLY-SPECIFIED
:DEGREES
189
root  -72.9473 37.9359 4.67575 -7.61336 -23.7114 3.58597
RightUpLeg  -10.1295 -4.3089 -10.5534
RightLeg  70.1731 -2.32162 -7.95724
RightFoot  3.51817 -1.88036 14.5338
RightToes  4.71047e-010 1.2921e-014 -6.02303e-014
Spine  8.60802 0.611377 -5.03743
Spine1  0.470226 0.0434363 -4.76451
HEad  -4.98514 64.7124 -14.9329
LeftShoulder1  1.65234 -0.515261 -35.0366
LeftArm  38.6466 -11.2583 -41.8151
LeftForeArm  -9.6202 -10.328 -16.9768
LeftHand  0.115498 1.24017 -3.4714
RightShoulder  5.33298 5.70833 50.7258
RightArm  21.9203 -5.68212 16.6443
RightForeArm  15.8833 2.68513 17.2174
RightHand  0.143029 -2.85867 7.47076
LeftUpLeg  -9.60163 8.49237 -11.4939
LeftLeg  22.5221 16.6747 4.48087
LeftFoot  -8.74406 -0.12488 7.82126
LeftToes  2.15783e-011 -7.56106e-012 -8.20802e-012
190
root  -73.3472 38.0812 5.68399 -6.50279 -19.9258 3.17197
RightUpLeg  -15.1405 -4.67273 -10.6788
RightLeg  69.2232 -1.96923 -6.51097
RightFoot  1.23394 -1.55302 14.1062
RightToes  4.71047e-010 1.2921e-014 -6.02303e-014
Spine  7.6384 -0.368731 -7.07208
Spine1  0.819707 -1.42078 -2.25024
HEad  -4.68764 65.5611 -14.0556
LeftShoulder1  1.65671 -0.616476 -34.1491
LeftArm  44.8975 -14.7247 -46.4434
LeftForeArm  -9.73727 -13.2261 -15.0743
LeftHand  0.0658189 1.16149 -2.00986
RightShoulder  4.46004 4.30121 50.093
RightArm  26.4101 -7.30482 17.275
RightForeArm  11.9718 5.91874 16.5077
RightHand  0.0940786 -3.3852 6.77233
LeftUpLeg  -7.91604 4.79508 -11.9221
LeftLeg  21.4986 16.5997 4.57386
LeftFoot  -9.59256 -0.0510335 7.12124
LeftToes  2.15783e-011 -7.56106e-012 -8.20802e-012
191
root  -73.7536 38.2453 6.71188 -5.82953 -17.6129 2.27472
RightUpLeg  -18.9012 -3.10419 -9.81176
RightLeg  65.0752 -2.13304 -5.62025
RightFoot  -0.804675 -1.26794 13.6312
RightToes  4.71047e-010 1.2921e-014 -6.02303e-014
Spine  7.39896 -0.674992 -7.53149
Spine1  0.750386 -1.85367 -1.12081
HEad  -4.66585 66.0908 -13.1033
LeftShoulder1  1.67933 -0.815032 -32.8388
LeftArm  49.2451 -17.4995 -50.8899
LeftForeArm  -6.91786 -15.8094 -12.6814
LeftHand  0.305787 -2.04532 -4.61519
RightShoulder  3.96595 3.4414 50.0714
RightArm  30.8362 -8.83419 17.2646
RightForeArm  11.3551 8.73492 15.4355
RightHand  0.295981 -0.520164 7.17249
LeftUpLeg  -5.57157 5.30398 -10.5213
LeftLeg  20.2576 13.9126 2.44557
LeftFoot  -10.9779 0.0430531 7.26358
LeftToes  2.15783e-011 -7.56106e-012 -8.20802e-012
192
root  -74.0894 38.4212 7.78615 -5.24419 -14.2856 1.12392
RightUpLeg  -20.9581 -2.37703 -8.77462
RightLeg  58.0781 -4.70028 -8.52811
RightFoot  -0.630186 -1.21659 12.8811
RightToes  4.71047e-010 1.2921e-014 -6.02303e-014
Spine  7.68881 -1.59043 -7.70973
Spine1  0.235363 -2.9954 0.84504
HEad  -5.37566 66.3746 -13.4493
LeftShoulder1  1.66407 -0.792661 -32.6866
LeftArm  54.995 -18.9257 -53.5622
LeftForeArm  -10.8452 -20.1974 -8.2542
LeftHand  0.117935 -0.415339 -2.33074
RightShoulder  3.88053 3.34994 49.6519
RightArm  34.294 -9.76603 17.0194
RightForeArm  6.09817 10.3138 14.9671
RightHand  0.0913407 -3.43469 6.80105
LeftUpLeg  -2.92213 4.30584 -9.80166
LeftLeg  18.6245 11.7402 2.21457
LeftFoot  -11.9184 0.106232 6.83739
LeftToes  2.15783e-011 -7.56106e-012 -8.20802e-012
193
root  -74.366 38.6139 8.83479 -4.53145 -11.6208 0.171799
RightUpLeg  -21.9246 -2.23714 -7.98928
RightLeg  47.987 -8.45532 -10.2327
RightFoot  0.632292 -1.23971 11.8236
RightToes  4.71047e-010 1.2921e-014 -6.02303e-014
Spine  7.3182 -2.12475 -7.02565
Spine1  0.193881 -3.37105 1.71971
HEad  -5.59548 65.7895 -13.0898
LeftShoulder1  1.71441 -1.04868 -31.6173
LeftArm  55.756 -20.2073 -56.2127
LeftForeArm  -9.36379 -23.2383 -5.5912
LeftHand  0.175061 -1.54153 -2.80434
RightShoulder  4.11252 3.65601 50.3585
RightArm  37.7709 -10.5442 15.7745
RightForeArm  3.20748 11.7953 14.3648
RightHand  0.0866002 -3.55406 6.99992
LeftUpLeg  -0.251787 5.12565 -8.1451
LeftLeg  16.235 8.20985 0.211441
LeftFoot  -12.3552 0.143301 7.773
LeftToes  2.15783e-011 -7.56106e-012 -8.20802e-012
194
root  -74.6614 38.7142 9.88633 -3.8148 -9.6624 -0.284698
RightUpLeg  -21.7508 -2.28181 -7.56778
RightLeg  35.3322 -10.8894 -8.42474
RightFoot  0.990536 -1.36871 12.6844
RightToes  4.71047e-010 1.2921e-014 -6.02303e-014
Spine  6.29136 -2.14864 -7.27499
Spine1  0.84933 -3.47175 3.37086
HEad  -6.15367 64.8364 -13.6629
LeftShoulder1  1.78029 -1.23313 -31.5438
LeftArm  51.9035 -21.6404 -57.9248
LeftForeArm  -3.50152 -25.1854 -5.57207
LeftHand  0.195256 -2.08877 -2.86463
RightShoulder  4.09108 3.69529 49.8275
RightArm  35.7432 -10.2663 15.7382
RightForeArm  8.50494 10.3638 14.9696
RightHand  0.34396 -0.144317 7.66955
LeftUpLeg  1.88989 5.12125 -7.41072
LeftLeg  14.4944 5.9468 -0.260301
LeftFoot  -13.0097 0.186899 7.44526
LeftToes  2.15783e-011 -7.56106e-012 -8.20802e-012
195
root  -74.9343 38.7523 10.9572 -2.85535 -7.73843 -0.229904
RightUpLeg  -20.7839 -3.63832 -7.2486
RightLeg  20.7404 -11.0608 -4.79118
RightFoot  2.16077 -1.49336 12.6929
RightToes  4.71047e-010 1.2921e-014 -6.02303e-014
Spine  5.15422 -2.37738 -7.36785
Spine1  1.13945 -3.62708 4.24968
HEad  -6.40208 64.0343 -13.7086
LeftShoulder1  1.77941 -1.28529 -31.1142
LeftArm  46.8439 -21.724 -58.7119
LeftForeArm  1.84483 -27.8436 -5.91215
LeftHand  0.157188 -1.37964 -2.57969
RightShoulder  4.207 3.88023 49.9521
RightArm  31.9342 -9.42481 15.2264
RightForeArm  11.3845 7.89955 16.064
RightHand  0.382176 -0.0783235 8.40127
LeftUpLeg  3.66156 4.93303 -7.16852
LeftLeg  12.6781 4.11238 -0.643139
LeftFoot  -13.553 0.2242 7.37689
LeftToes  2.15783e-011 -7.56106e-012 -8.20802e-012
